<svg xmlns="http://www.w3.org/2000/svg" viewBox="0 0 512 512">
  <defs>
    <linearGradient id="grad1" x1="0%" y1="0%" x2="100%" y2="100%">
      <stop offset="0%" style="stop-color:#3b82f6;stop-opacity:1" />
      <stop offset="100%" style="stop-color:#06b6d4;stop-opacity:1" />
    </linearGradient>
  </defs>
  <rect width="512" height="512" rx="128" fill="url(#grad1)" />
  <path d="M256 112c-79.5 0-144 64.5-144 144s64.5 144 144 144 144-64.5 144-144-64.5-144-144-144zm0 256c-61.9 0-112-50.1-112-112s50.1-112 112-112 112 50.1 112 112-50.1 112-112 112z" fill="#ffffff" opacity="0.2"/>
  <path d="M336 232h-56v-56c0-13.3-10.7-24-24-24s-24 10.7-24 24v56h-56c-13.3 0-24 10.7-24 24s10.7 24 24 24h56v56c0 13.3 10.7 24 24 24s24-10.7 24-24v-56h56c13.3 0 24-10.7 24-24s-10.7-24-24-24z" fill="#ffffff" />
  <circle cx="360" cy="150" r="20" fill="#ffffff" opacity="0.6" />
  <path d="M140 360l40-40" stroke="#ffffff" stroke-width="20" stroke-linecap="round" opacity="0.3" />
</svg>
